<?xml version="1.0" encoding="utf-8"?>
<!-- Generator: Adobe Illustrator 22.0.1, SVG Export Plug-In . SVG Version: 6.00 Build 0)  -->
<svg version="1.1" id="Capa_1" xmlns="http://www.w3.org/2000/svg" xmlns:xlink="http://www.w3.org/1999/xlink" x="0px" y="0px"
	 viewBox="0 0 600.9 600.9" style="enable-background:new 0 0 600.9 600.9;" xml:space="preserve">
<style type="text/css">
	.st0{fill:#999999;}
	.st1{fill:#7E8580;}
</style>
<g>
	<g>
		<path class="st0" d="M570.7,323.4L596,124l-187.2-71L199.3,153.1L3.6,70.4l27.6,217.6L5.8,503.6l206.2,38.7l197.7-37.6L597.3,548
			L570.7,323.4z M211.9,520l-182-34.1l23.4-197L30,105.3L199.8,177L409.7,76.7l162.5,61.7l-23.6,184.9l23.3,196.3l-161.8-37.4
			L211.9,520z"/>
		<path class="st1" d="M503.7,404.2c-5.4,0-10.5,1.6-14.9,4.1c-17.3-12.6-35.2-27.5-36.1-47.1c-1.2-26.9,15.3-52.7-3.6-77.3
			c-18.4-24-65.5-7.8-83.8-26c2.9-4.6,4.6-9.9,4.6-15.6c0-16.5-13.3-29.8-29.8-29.8c-16.5,0-29.8,13.3-29.8,29.8
			c0,9.5,4.4,17.8,11.3,23.2c-2.9,7.2-4.7,15-5,22.8c-0.5,12.5,3.1,24.9,0.4,37.1c-2.3,10.2-16.7,9.6-24.5,9.6
			c-19.6,0.1-47.6-3.5-60.3,10.3c-3.7-2.8-8.1-4.8-13-5.5c-2.9-25.6,2-50.5-20.6-70.2c-14.5-12.6-38.3-18.2-51.8-32.3
			c2.9-4.6,4.6-9.9,4.6-15.6c0-16.5-13.3-29.8-29.8-29.8s-29.8,13.3-29.8,29.8s13.3,29.8,29.8,29.8c5.5,0,10.6-1.6,15-4.2
			c10,10,23.7,16.6,36.4,23.3c16.3,8.5,28.5,19.5,30.8,38.8c1.2,10.6,0.7,21,1.4,31.5c-12,3.8-20.7,15-20.7,28.2
			c0,16.5,13.3,29.8,29.8,29.8s29.8-13.3,29.8-29.8c0-3.8-0.8-7.6-2.2-11.1c9.9-17.8,55.4-5.6,72.6-11.4c12.5-4.2,16.9-15.9,18-28
			c1.1-11.3-2.6-22.5-0.8-33.9c0.7-4.7,1.8-9.1,3.4-13.3c1.7,0.2,3.2,0.5,4.9,0.5c5.3,0,10.1-1.4,14.4-3.8
			c18.5,18.5,55.1,6.1,78.4,20.1c27.6,16.6-0.8,63.4,7.9,88.2c6,17.3,21.9,30.2,37.5,41.7c-2.9,4.6-4.6,10-4.6,15.7
			c0,16.5,13.3,29.8,29.8,29.8c16.5,0,29.8-13.3,29.8-29.8C533.5,417.5,520.1,404.2,503.7,404.2z"/>
	</g>
</g>
</svg>
