<?xml version="1.0" encoding="utf-8"?>
<!-- Generator: Adobe Illustrator 22.0.1, SVG Export Plug-In . SVG Version: 6.00 Build 0)  -->
<svg version="1.1" id="Capa_1" xmlns="http://www.w3.org/2000/svg" xmlns:xlink="http://www.w3.org/1999/xlink" x="0px" y="0px"
	 viewBox="0 0 600.9 600.9" style="enable-background:new 0 0 600.9 600.9;" xml:space="preserve">
<style type="text/css">
	.st0{fill:#999999;}
	.st1{fill:#7E8580;}
	.st2{fill:none;}
	.st3{enable-background:new    ;}
</style>
<g>
	<g>
		<path class="st0" d="M526.8,237.1l21-165.9L392.1,12.1L217.8,95.4L55,26.6l23,181L56.8,387l171.5,32.2l164.5-31.3l156.1,36
			L526.8,237.1z M228.3,400.6L76.9,372.2l19.5-163.9L77,55.7l141.2,59.6l174.6-83.4L528,83.2L508.4,237l19.4,163.3l-134.6-31.1
			L228.3,400.6z"/>
		<path class="st1" d="M471,304.3c-4.5,0-8.7,1.3-12.4,3.4c-14.4-10.5-29.3-22.9-30-39.2c-1-22.4,12.7-43.8-3-64.3
			c-15.3-20-54.5-6.5-69.7-21.6c2.4-3.8,3.8-8.2,3.8-13c0-13.7-11.1-24.8-24.8-24.8c-13.7,0-24.8,11.1-24.8,24.8
			c0,7.9,3.7,14.8,9.4,19.3c-2.4,6-3.9,12.5-4.2,19c-0.4,10.4,2.6,20.7,0.3,30.9c-1.9,8.5-13.9,8-20.4,8
			c-16.3,0.1-39.6-2.9-50.2,8.6c-3.1-2.3-6.7-4-10.8-4.6c-2.4-21.3,1.7-42-17.1-58.4c-12.1-10.5-31.9-15.1-43.1-26.9
			c2.4-3.8,3.8-8.2,3.8-13c0-13.7-11.1-24.8-24.8-24.8s-24.8,11.1-24.8,24.8s11.1,24.8,24.8,24.8c4.6,0,8.8-1.3,12.5-3.5
			c8.3,8.3,19.7,13.8,30.3,19.4c13.6,7.1,23.7,16.2,25.6,32.3c1,8.8,0.6,17.5,1.2,26.2c-10,3.2-17.2,12.5-17.2,23.5
			c0,13.7,11.1,24.8,24.8,24.8s24.8-11.1,24.8-24.8c0-3.2-0.7-6.3-1.8-9.2c8.2-14.8,46.1-4.7,60.4-9.5c10.4-3.5,14.1-13.2,15-23.3
			c0.9-9.4-2.2-18.7-0.7-28.2c0.6-3.9,1.5-7.6,2.8-11.1c1.4,0.2,2.7,0.4,4.1,0.4c4.4,0,8.4-1.2,12-3.2c15.4,15.4,45.8,5.1,65.2,16.7
			c23,13.8-0.7,52.7,6.6,73.4c5,14.4,18.2,25.1,31.2,34.7c-2.4,3.8-3.8,8.3-3.8,13.1c0,13.7,11.1,24.8,24.8,24.8
			c13.7,0,24.8-11.1,24.8-24.8C495.8,315.4,484.7,304.3,471,304.3z"/>
	</g>
</g>
<rect x="55" y="450" class="st2" width="494" height="115.8"/>
<g class="st3">
	<path class="st0" d="M134.4,450.1v60.5c0,9.3-0.8,16.3-2.5,21.2c-1.7,4.9-4.9,8.7-9.7,11.5c-4.8,2.8-11.4,4.3-19.6,4.3
		c-7.3,0-13.8-0.8-19.7-2.3v-22.9c4.1,1.2,8,1.8,11.5,1.8c4.2,0,7.2-1,9-2.9c1.8-1.9,2.7-5.5,2.7-10.6v-60.5H134.4z"/>
	<path class="st0" d="M191.7,547.5c-13.5,0-24.5-4.5-33-13.4c-8.5-9-12.8-20.9-12.8-35.9c0-14.3,4.1-26.2,12.2-35.5
		c8.1-9.4,19.4-14,33.9-14c13.4,0,24.2,4.4,32.7,13.2c8.4,8.8,12.6,20.6,12.6,35.3c0,15.2-4.2,27.4-12.7,36.6
		C216,542.9,205.1,547.5,191.7,547.5z M191.5,525.7c5,0,8.5-2.2,10.7-6.5c2.2-4.3,3.3-12.3,3.3-23.8c0-16.7-4.5-25-13.4-25
		c-9.7,0-14.5,9.5-14.5,28.5C177.6,516.8,182.3,525.7,191.5,525.7z"/>
	<path class="st0" d="M249.7,546v-96h37.1c16.1,0,28.2,4.8,36.2,14.3s12,20.6,12,33.2c0,14.3-4.3,26-12.9,35
		c-8.6,9-19.8,13.5-33.5,13.5H249.7z M279.1,524h7.7c4.9,0,9-2.4,12.3-7.1c3.4-4.7,5-11.2,5-19.3c0-7-1.5-13-4.5-18.1
		c-3-5.1-7.3-7.6-12.9-7.6h-7.7V524z"/>
	<path class="st0" d="M347.5,546v-96h37.1c16.1,0,28.2,4.8,36.2,14.3s12,20.6,12,33.2c0,14.3-4.3,26-12.9,35
		c-8.6,9-19.8,13.5-33.5,13.5H347.5z M377,524h7.7c4.9,0,9-2.4,12.3-7.1c3.4-4.7,5-11.2,5-19.3c0-7-1.5-13-4.5-18.1
		c-3-5.1-7.3-7.6-12.9-7.6H377V524z"/>
	<path class="st0" d="M519.4,450.1l-30,55.3V546h-28.6v-40.6l-32.3-55.3h32.2l16.8,31.6l16.1-31.6H519.4z"/>
</g>
</svg>
