<?xml version="1.0" encoding="utf-8"?>
<!-- Generator: Adobe Illustrator 22.0.1, SVG Export Plug-In . SVG Version: 6.00 Build 0)  -->
<svg version="1.1" id="Capa_1" xmlns="http://www.w3.org/2000/svg" xmlns:xlink="http://www.w3.org/1999/xlink" x="0px" y="0px"
	 viewBox="0 0 512 512" style="enable-background:new 0 0 512 512;" xml:space="preserve">
<style type="text/css">
	.st0{fill:#444444;}
</style>
<g>
	<g>
		<path class="st0" d="M511.3,448.4c-0.7-12.7-6.6-24.6-16.3-32.9L363.5,303.2c19.7-30.7,31.1-67.1,31.1-106.2
			c0-108.6-88.4-197-197-197C89,0,0.6,88.4,0.6,197c0,108.6,88.4,197,197,197c34.4,0,66.8-8.9,95-24.5l125.2,128.3
			c8.9,9.1,21.2,14.2,33.9,14.1c12.7-0.1,24.9-5.5,33.6-14.8l13.4-14.3C507.5,473.6,512,461.1,511.3,448.4z M59.3,197
			c0-76.3,62.1-138.4,138.4-138.4C273.9,58.6,336,120.7,336,197c0,76.3-62.1,138.4-138.4,138.4C121.3,335.4,59.3,273.3,59.3,197z"/>
		<path class="st0" d="M272.3,171.4h-48.7v-49.1c0-14.2-11.5-25.8-25.8-25.8c-14.2,0-25.8,11.6-25.8,25.8v49.1h-49.2
			c-14.2,0-25.8,11.6-25.8,25.8c0,14.2,11.6,25.8,25.8,25.8h49.2v48.8c0,14.2,11.5,25.8,25.8,25.8c14.2,0,25.8-11.6,25.8-25.8v-48.8
			h48.7c14.2,0,25.8-11.5,25.8-25.8C298.1,183,286.6,171.4,272.3,171.4z"/>
	</g>
</g>
</svg>
